<svg width="13" height="12" viewBox="0 0 13 12" fill="none" xmlns="http://www.w3.org/2000/svg">
<path d="M6.6665 0C9.98021 0 12.6665 2.68629 12.6665 6C12.6665 9.31371 9.98021 12 6.6665 12C3.3528 12 0.666504 9.31371 0.666504 6C0.666504 2.68629 3.3528 0 6.6665 0ZM6.6665 1C3.90508 1 1.6665 3.23858 1.6665 6C1.6665 8.76142 3.90508 11 6.6665 11C9.42793 11 11.6665 8.76142 11.6665 6C11.6665 3.23858 9.42793 1 6.6665 1ZM6.16803 3C6.41349 3 6.61764 3.17688 6.65998 3.41012L6.66803 3.5V6H8.1665C8.44265 6 8.6665 6.22386 8.6665 6.5C8.6665 6.74546 8.48963 6.94961 8.25638 6.99194L8.1665 7H6.16803C5.92257 7 5.71842 6.82312 5.67609 6.58988L5.66803 6.5V3.5C5.66803 3.22386 5.89189 3 6.16803 3Z" fill="#314692"/>
</svg>
