<svg width="13" height="14" viewBox="0 0 13 14" fill="none" xmlns="http://www.w3.org/2000/svg">
<path d="M7.8335 6C7.8335 5.17157 7.16192 4.5 6.3335 4.5C5.50507 4.5 4.8335 5.17157 4.8335 6C4.8335 6.82843 5.50507 7.5 6.3335 7.5C7.16192 7.5 7.8335 6.82843 7.8335 6ZM12.3335 6C12.3335 8.8739 9.23626 12.0162 7.49236 13.5577C6.824 14.1485 5.843 14.1485 5.17464 13.5577C3.43074 12.0162 0.333496 8.8739 0.333496 6C0.333496 2.68629 3.01979 0 6.3335 0C9.6472 0 12.3335 2.68629 12.3335 6ZM11.3335 6C11.3335 3.23858 9.09492 1 6.3335 1C3.57207 1 1.3335 3.23858 1.3335 6C1.3335 7.10846 1.94814 8.39535 2.90322 9.68269C3.83716 10.9415 4.99044 12.0602 5.83693 12.8085C6.12705 13.065 6.53994 13.065 6.83006 12.8085C7.67656 12.0602 8.82984 10.9415 9.76378 9.68269C10.7189 8.39535 11.3335 7.10846 11.3335 6Z" fill="#314692"/>
</svg>
