<svg width="9" height="14" viewBox="0 0 9 14" fill="none" xmlns="http://www.w3.org/2000/svg">
<path d="M3.3335 11C3.05735 11 2.8335 11.2239 2.8335 11.5C2.8335 11.7761 3.05735 12 3.3335 12H5.3335C5.60964 12 5.8335 11.7761 5.8335 11.5C5.8335 11.2239 5.60964 11 5.3335 11H3.3335ZM2.0835 0C1.117 0 0.333496 0.783502 0.333496 1.75V12.25C0.333496 13.2165 1.117 14 2.0835 14H6.5835C7.54999 14 8.3335 13.2165 8.3335 12.25V1.75C8.3335 0.783502 7.54999 0 6.5835 0H2.0835ZM1.3335 1.75C1.3335 1.33579 1.66928 1 2.0835 1H6.5835C6.99771 1 7.3335 1.33579 7.3335 1.75V12.25C7.3335 12.6642 6.99771 13 6.5835 13H2.0835C1.66928 13 1.3335 12.6642 1.3335 12.25V1.75Z" fill="#314692"/>
</svg>
